<svg width="269" height="40" viewBox="0 0 269 40" fill="none" xmlns="http://www.w3.org/2000/svg">
<path d="M64.502 17.464H62.174V28H58.766V17.464H57.254V14.704H58.766V14.032C58.766 12.4 59.23 11.2 60.158 10.432C61.086 9.664 62.486 9.304 64.358 9.352V12.184C63.542 12.168 62.974 12.304 62.654 12.592C62.334 12.88 62.174 13.4 62.174 14.152V14.704H64.502V17.464ZM68.3834 13.12C67.7914 13.12 67.2954 12.936 66.8954 12.568C66.5114 12.184 66.3194 11.712 66.3194 11.152C66.3194 10.592 66.5114 10.128 66.8954 9.76C67.2954 9.376 67.7914 9.184 68.3834 9.184C68.9754 9.184 69.4634 9.376 69.8474 9.76C70.2474 10.128 70.4474 10.592 70.4474 11.152C70.4474 11.712 70.2474 12.184 69.8474 12.568C69.4634 12.936 68.9754 13.12 68.3834 13.12ZM70.0394 14.704V28H66.6794V14.704H70.0394ZM80.7271 14.512C82.3111 14.512 83.5911 15.016 84.5671 16.024C85.5431 17.016 86.0311 18.408 86.0311 20.2V28H82.6711V20.656C82.6711 19.6 82.4071 18.792 81.8791 18.232C81.3511 17.656 80.6311 17.368 79.7191 17.368C78.7911 17.368 78.0551 17.656 77.5111 18.232C76.9831 18.792 76.7191 19.6 76.7191 20.656V28H73.3591V14.704H76.7191V16.36C77.1671 15.784 77.7351 15.336 78.4231 15.016C79.1271 14.68 79.8951 14.512 80.7271 14.512ZM88.3623 21.304C88.3623 19.96 88.6263 18.768 89.1543 17.728C89.6983 16.688 90.4263 15.888 91.3383 15.328C92.2663 14.768 93.2983 14.488 94.4343 14.488C95.4263 14.488 96.2903 14.688 97.0263 15.088C97.7783 15.488 98.3783 15.992 98.8263 16.6V14.704H102.21V28H98.8263V26.056C98.3943 26.68 97.7943 27.2 97.0263 27.616C96.2743 28.016 95.4023 28.216 94.4103 28.216C93.2903 28.216 92.2663 27.928 91.3383 27.352C90.4263 26.776 89.6983 25.968 89.1543 24.928C88.6263 23.872 88.3623 22.664 88.3623 21.304ZM98.8263 21.352C98.8263 20.536 98.6663 19.84 98.3463 19.264C98.0263 18.672 97.5943 18.224 97.0503 17.92C96.5063 17.6 95.9223 17.44 95.2983 17.44C94.6743 17.44 94.0983 17.592 93.5703 17.896C93.0423 18.2 92.6103 18.648 92.2743 19.24C91.9543 19.816 91.7943 20.504 91.7943 21.304C91.7943 22.104 91.9543 22.808 92.2743 23.416C92.6103 24.008 93.0423 24.464 93.5703 24.784C94.1143 25.104 94.6903 25.264 95.2983 25.264C95.9223 25.264 96.5063 25.112 97.0503 24.808C97.5943 24.488 98.0263 24.04 98.3463 23.464C98.6663 22.872 98.8263 22.168 98.8263 21.352ZM112.86 14.512C114.444 14.512 115.724 15.016 116.7 16.024C117.676 17.016 118.164 18.408 118.164 20.2V28H114.804V20.656C114.804 19.6 114.54 18.792 114.012 18.232C113.484 17.656 112.764 17.368 111.852 17.368C110.924 17.368 110.188 17.656 109.644 18.232C109.116 18.792 108.852 19.6 108.852 20.656V28H105.492V14.704H108.852V16.36C109.3 15.784 109.868 15.336 110.556 15.016C111.26 14.68 112.028 14.512 112.86 14.512ZM120.495 21.352C120.495 19.976 120.775 18.776 121.335 17.752C121.895 16.712 122.671 15.912 123.663 15.352C124.655 14.776 125.791 14.488 127.071 14.488C128.719 14.488 130.079 14.904 131.151 15.736C132.239 16.552 132.967 17.704 133.335 19.192H129.711C129.519 18.616 129.191 18.168 128.727 17.848C128.279 17.512 127.719 17.344 127.047 17.344C126.087 17.344 125.327 17.696 124.767 18.4C124.207 19.088 123.927 20.072 123.927 21.352C123.927 22.616 124.207 23.6 124.767 24.304C125.327 24.992 126.087 25.336 127.047 25.336C128.407 25.336 129.295 24.728 129.711 23.512H133.335C132.967 24.952 132.239 26.096 131.151 26.944C130.063 27.792 128.703 28.216 127.071 28.216C125.791 28.216 124.655 27.936 123.663 27.376C122.671 26.8 121.895 26 121.335 24.976C120.775 23.936 120.495 22.728 120.495 21.352ZM148.157 21.064C148.157 21.544 148.125 21.976 148.061 22.36H138.341C138.421 23.32 138.757 24.072 139.349 24.616C139.941 25.16 140.669 25.432 141.533 25.432C142.781 25.432 143.669 24.896 144.197 23.824H147.821C147.437 25.104 146.701 26.16 145.613 26.992C144.525 27.808 143.189 28.216 141.605 28.216C140.325 28.216 139.173 27.936 138.149 27.376C137.141 26.8 136.349 25.992 135.773 24.952C135.213 23.912 134.933 22.712 134.933 21.352C134.933 19.976 135.213 18.768 135.773 17.728C136.333 16.688 137.117 15.888 138.125 15.328C139.133 14.768 140.293 14.488 141.605 14.488C142.869 14.488 143.997 14.76 144.989 15.304C145.997 15.848 146.773 16.624 147.317 17.632C147.877 18.624 148.157 19.768 148.157 21.064ZM144.677 20.104C144.661 19.24 144.349 18.552 143.741 18.04C143.133 17.512 142.389 17.248 141.509 17.248C140.677 17.248 139.973 17.504 139.397 18.016C138.837 18.512 138.493 19.208 138.365 20.104H144.677ZM172.84 14.512C174.472 14.512 175.784 15.016 176.776 16.024C177.784 17.016 178.288 18.408 178.288 20.2V28H174.928V20.656C174.928 19.616 174.664 18.824 174.136 18.28C173.608 17.72 172.888 17.44 171.976 17.44C171.064 17.44 170.336 17.72 169.792 18.28C169.264 18.824 169 19.616 169 20.656V28H165.64V20.656C165.64 19.616 165.376 18.824 164.848 18.28C164.32 17.72 163.6 17.44 162.688 17.44C161.76 17.44 161.024 17.72 160.48 18.28C159.952 18.824 159.688 19.616 159.688 20.656V28H156.328V14.704H159.688V16.312C160.12 15.752 160.672 15.312 161.344 14.992C162.032 14.672 162.784 14.512 163.6 14.512C164.64 14.512 165.568 14.736 166.384 15.184C167.2 15.616 167.832 16.24 168.28 17.056C168.712 16.288 169.336 15.672 170.152 15.208C170.984 14.744 171.88 14.512 172.84 14.512ZM180.612 21.304C180.612 19.96 180.876 18.768 181.404 17.728C181.948 16.688 182.676 15.888 183.588 15.328C184.516 14.768 185.548 14.488 186.684 14.488C187.676 14.488 188.54 14.688 189.276 15.088C190.028 15.488 190.628 15.992 191.076 16.6V14.704H194.46V28H191.076V26.056C190.644 26.68 190.044 27.2 189.276 27.616C188.524 28.016 187.652 28.216 186.66 28.216C185.54 28.216 184.516 27.928 183.588 27.352C182.676 26.776 181.948 25.968 181.404 24.928C180.876 23.872 180.612 22.664 180.612 21.304ZM191.076 21.352C191.076 20.536 190.916 19.84 190.596 19.264C190.276 18.672 189.844 18.224 189.3 17.92C188.756 17.6 188.172 17.44 187.548 17.44C186.924 17.44 186.348 17.592 185.82 17.896C185.292 18.2 184.86 18.648 184.524 19.24C184.204 19.816 184.044 20.504 184.044 21.304C184.044 22.104 184.204 22.808 184.524 23.416C184.86 24.008 185.292 24.464 185.82 24.784C186.364 25.104 186.94 25.264 187.548 25.264C188.172 25.264 188.756 25.112 189.3 24.808C189.844 24.488 190.276 24.04 190.596 23.464C190.916 22.872 191.076 22.168 191.076 21.352ZM205.11 14.512C206.694 14.512 207.974 15.016 208.95 16.024C209.926 17.016 210.414 18.408 210.414 20.2V28H207.054V20.656C207.054 19.6 206.79 18.792 206.262 18.232C205.734 17.656 205.014 17.368 204.102 17.368C203.174 17.368 202.438 17.656 201.894 18.232C201.366 18.792 201.102 19.6 201.102 20.656V28H197.742V14.704H201.102V16.36C201.55 15.784 202.118 15.336 202.806 15.016C203.51 14.68 204.278 14.512 205.11 14.512ZM212.745 21.304C212.745 19.96 213.009 18.768 213.537 17.728C214.081 16.688 214.809 15.888 215.721 15.328C216.649 14.768 217.681 14.488 218.817 14.488C219.809 14.488 220.673 14.688 221.409 15.088C222.161 15.488 222.761 15.992 223.209 16.6V14.704H226.593V28H223.209V26.056C222.777 26.68 222.177 27.2 221.409 27.616C220.657 28.016 219.785 28.216 218.793 28.216C217.673 28.216 216.649 27.928 215.721 27.352C214.809 26.776 214.081 25.968 213.537 24.928C213.009 23.872 212.745 22.664 212.745 21.304ZM223.209 21.352C223.209 20.536 223.049 19.84 222.729 19.264C222.409 18.672 221.977 18.224 221.433 17.92C220.889 17.6 220.305 17.44 219.681 17.44C219.057 17.44 218.481 17.592 217.953 17.896C217.425 18.2 216.993 18.648 216.657 19.24C216.337 19.816 216.177 20.504 216.177 21.304C216.177 22.104 216.337 22.808 216.657 23.416C216.993 24.008 217.425 24.464 217.953 24.784C218.497 25.104 219.073 25.264 219.681 25.264C220.305 25.264 220.889 25.112 221.433 24.808C221.977 24.488 222.409 24.04 222.729 23.464C223.049 22.872 223.209 22.168 223.209 21.352ZM235.083 14.488C236.075 14.488 236.947 14.688 237.699 15.088C238.451 15.472 239.043 15.976 239.475 16.6V14.704H242.859V28.096C242.859 29.328 242.611 30.424 242.115 31.384C241.619 32.36 240.875 33.128 239.883 33.688C238.891 34.264 237.691 34.552 236.283 34.552C234.395 34.552 232.843 34.112 231.627 33.232C230.427 32.352 229.747 31.152 229.587 29.632H232.923C233.099 30.24 233.475 30.72 234.051 31.072C234.643 31.44 235.355 31.624 236.187 31.624C237.163 31.624 237.955 31.328 238.563 30.736C239.171 30.16 239.475 29.28 239.475 28.096V26.032C239.043 26.656 238.443 27.176 237.675 27.592C236.923 28.008 236.059 28.216 235.083 28.216C233.963 28.216 232.939 27.928 232.011 27.352C231.083 26.776 230.347 25.968 229.803 24.928C229.275 23.872 229.011 22.664 229.011 21.304C229.011 19.96 229.275 18.768 229.803 17.728C230.347 16.688 231.075 15.888 231.987 15.328C232.915 14.768 233.947 14.488 235.083 14.488ZM239.475 21.352C239.475 20.536 239.315 19.84 238.995 19.264C238.675 18.672 238.243 18.224 237.699 17.92C237.155 17.6 236.571 17.44 235.947 17.44C235.323 17.44 234.747 17.592 234.219 17.896C233.691 18.2 233.259 18.648 232.923 19.24C232.603 19.816 232.443 20.504 232.443 21.304C232.443 22.104 232.603 22.808 232.923 23.416C233.259 24.008 233.691 24.464 234.219 24.784C234.763 25.104 235.339 25.264 235.947 25.264C236.571 25.264 237.155 25.112 237.699 24.808C238.243 24.488 238.675 24.04 238.995 23.464C239.315 22.872 239.475 22.168 239.475 21.352ZM258.5 21.064C258.5 21.544 258.468 21.976 258.404 22.36H248.684C248.764 23.32 249.1 24.072 249.692 24.616C250.284 25.16 251.012 25.432 251.876 25.432C253.124 25.432 254.012 24.896 254.54 23.824H258.164C257.78 25.104 257.044 26.16 255.956 26.992C254.868 27.808 253.532 28.216 251.948 28.216C250.668 28.216 249.516 27.936 248.492 27.376C247.484 26.8 246.692 25.992 246.116 24.952C245.556 23.912 245.276 22.712 245.276 21.352C245.276 19.976 245.556 18.768 246.116 17.728C246.676 16.688 247.46 15.888 248.468 15.328C249.476 14.768 250.636 14.488 251.948 14.488C253.212 14.488 254.34 14.76 255.332 15.304C256.34 15.848 257.116 16.624 257.66 17.632C258.22 18.624 258.5 19.768 258.5 21.064ZM255.02 20.104C255.004 19.24 254.692 18.552 254.084 18.04C253.476 17.512 252.732 17.248 251.852 17.248C251.02 17.248 250.316 17.504 249.74 18.016C249.18 18.512 248.836 19.208 248.708 20.104H255.02ZM264.313 16.768C264.745 16.064 265.305 15.512 265.993 15.112C266.697 14.712 267.497 14.512 268.393 14.512V18.04H267.505C266.449 18.04 265.649 18.288 265.105 18.784C264.577 19.28 264.313 20.144 264.313 21.376V28H260.953V14.704H264.313V16.768Z" fill="white"/>
<path d="M34.1422 5.85781C30.3647 2.08031 25.3422 0 20 0C14.6578 0 9.63531 2.08031 5.85781 5.85781C2.08031 9.63531 0 14.6578 0 20C0 25.3422 2.08039 30.3646 5.85781 34.1422C9.63523 37.9198 14.6578 40 20 40C25.3422 40 30.3647 37.9197 34.1422 34.1422C37.9197 30.3647 40 25.3422 40 20C40 14.6578 37.9196 9.63539 34.1422 5.85781Z" fill="url(#paint0_linear_35212_417)"/>
<g clip-path="url(#clip0_35212_417)">
<path d="M20.5714 8V33.1429" stroke="#363F5F" stroke-width="2" stroke-linecap="round" stroke-linejoin="round"/>
<path d="M26.2857 12.5714H17.7143C16.6534 12.5714 15.636 12.9929 14.8859 13.743C14.1357 14.4931 13.7143 15.5106 13.7143 16.5714C13.7143 17.6323 14.1357 18.6497 14.8859 19.3999C15.636 20.15 16.6534 20.5714 17.7143 20.5714H23.4286C24.4894 20.5714 25.5069 20.9929 26.257 21.743C27.0072 22.4932 27.4286 23.5106 27.4286 24.5714C27.4286 25.6323 27.0072 26.6497 26.257 27.3999C25.5069 28.15 24.4894 28.5714 23.4286 28.5714H13.7143" stroke="#363F5F" stroke-width="2" stroke-linecap="round" stroke-linejoin="round"/>
</g>
<defs>
<linearGradient id="paint0_linear_35212_417" x1="40" y1="20" x2="-8.2748e-07" y2="20" gradientUnits="userSpaceOnUse">
<stop stop-color="#F7DC01"/>
<stop offset="1" stop-color="#FECF01" stop-opacity="0.94"/>
</linearGradient>
<clipPath id="clip0_35212_417">
<rect width="27.4286" height="27.4286" fill="white" transform="translate(6.85715 6.85714)"/>
</clipPath>
</defs>
</svg>
